<?xml version="1.0" encoding="utf-8"?>
<!-- Generator: Adobe Illustrator 21.1.0, SVG Export Plug-In . SVG Version: 6.00 Build 0)  -->
<svg version="1.1" id="Laag_1" xmlns="http://www.w3.org/2000/svg" xmlns:xlink="http://www.w3.org/1999/xlink" x="0px" y="0px"
	 viewBox="0 0 415.4 346.1" style="enable-background:new 0 0 415.4 346.1;" xml:space="preserve">
<style type="text/css">
	.st0{fill:#FFFFFF;}
</style>
<path class="st0" d="M64.5,283.8v3.2c0,18.4-9.1,27.5-27.5,27.5l-37,0V186.8l36.6,0c18.4,0,27.5,9.1,27.5,27.5v24.9
	c0,14-4.5,19.7-12.7,22.6C60.3,264.9,64.5,271.8,64.5,283.8z M33.2,206.7H22.4v45.5h10c6.4,0,9.3-3.3,9.3-9.6v-27.4
	C41.7,209.5,38.9,206.7,33.2,206.7z M22.4,294.6h11.2c5.7,0,8.5-2.7,8.5-8.4v-4c0-6.3-3-9.3-9.3-9.3H22.4V294.6z"/>
<path class="st0" d="M72.4,330V186.8h53v20.4H94.1v45.1H119v20.4H94.1v36.8h30.9V330H72.4z"/>
<path class="st0" d="M51.1,83.1c8.2,2.9,12.6,9.5,12.6,22.5v24.5c0,18.3-9,27.3-27.3,27.3l-36.3,0V5.9l36.7,0
	c18.3,0,27.3,9,27.3,27.3v28.7C64.1,73.9,59.9,80.2,51.1,83.1z M41.4,129.3v-28.1c0-6.3-2.9-9.2-9.2-9.2h-9.9v45.7H33
	C38.7,137.7,41.4,135,41.4,129.3z M22.3,71.6h10.3c6.3,0,9.2-3,9.2-9.3V34c0-5.7-2.7-8.4-8.4-8.4H22.3V71.6z"/>
<path class="st0" d="M129.4,28.8v20.4H98.2v22.4H123V92H98.2V137h31.2v20.4H76.6V28.8H129.4z"/>
<path class="st0" d="M415.4,28.8v20.4h-31.2v22.4H409V92h-24.8V137h31.2v20.4h-52.8V28.8H415.4z"/>
<path class="st0" d="M195.4,18.7V39h-31.2v32.6H189V92h-24.8v45h31.2v20.4h-52.9V18.7H195.4z"/>
<path class="st0" d="M253.2,157.2l-21.8-72v72h-22.5V0h22.5v81.2L250,8.9h23.5L253,82.5l24.3,74.8H253.2z"/>
<path class="st0" d="M347.6,109.2v21.5c0,18.3-9,27.3-27.3,27.3h-9.8c-18.3,0-27.1-9-27.1-27.1v-23.5l21.8-2.8v25.4
	c0,5.7,2.7,8.4,8.6,8.4h2.9c5.9,0,8.6-2.7,8.6-8.4v-17.7c0-6.1-2.1-8.8-6.3-12l-22.7-16.6c-10.1-7.1-13-14.1-13-25.4V33.3
	c0-18.3,9-27.3,27.3-27.3h9.5c18.1,0,27.1,9,27.1,27.1v28l-22,2.8v-30c0-5.7-2.7-8.4-8.4-8.4H314c-5.7,0-8.4,2.7-8.4,8.4v21.3
	c0,6.1,2.1,9,6.3,12l22.7,16.6C344.5,90.9,347.6,97.2,347.6,109.2z"/>
<path class="st0" d="M242.8,273v-20.5h33.6v66.4c0,18.3-9,27.3-27.3,27.3h-11.9c-18.3,0-27.3-9-27.3-27.3V213.8
	c0-18.3,9-27.3,27.3-27.3h11.7c18.3,0,27.1,9,27.1,27.1V233l-22.1,2.8v-21c0-5.9-2.7-8.6-8.4-8.6h-4.6c-5.9,0-8.6,2.7-8.6,8.6v102.9
	c0,5.9,2.7,8.6,8.6,8.6h5c5.9,0,8.6-2.7,8.6-8.6V273H242.8z"/>
<path class="st0" d="M395.3,186.4h20.1v124.7h-23.6l-23.7-76.8l0.2,76.8h-20.2V186.4h25.5l21.8,81.7L395.3,186.4z"/>
<path class="st0" d="M288,325.1V186.4h52.9v20.4h-31.2v45h24.8v20.4h-24.8v32.6h30.8v20.4H288z"/>
<path class="st0" d="M199.7,289.7v37.1h-22.4v-36.7c0-6.5-2.9-17.1-9.5-17.1h-10.1v50.1l-22.4-0.1V187.8l36.9,0.1
	c18.2,0,27.2,9,27.2,27.2V239c0,13-4.6,20.5-12.8,23.8C195.9,265.4,199.7,278.7,199.7,289.7z M168.7,207.8h-10.9v44.6h10.1
	c6.3,0,9.2-2.9,9.2-9v-27.2C177.1,210.5,174.3,207.8,168.7,207.8z"/>
</svg>
