<?xml version="1.0" encoding="utf-8"?>
<!-- Generator: Adobe Illustrator 17.0.0, SVG Export Plug-In . SVG Version: 6.00 Build 0)  -->
<!DOCTYPE svg PUBLIC "-//W3C//DTD SVG 1.1//EN" "http://www.w3.org/Graphics/SVG/1.1/DTD/svg11.dtd">
<svg version="1.1" id="Layer_1" xmlns="http://www.w3.org/2000/svg" xmlns:xlink="http://www.w3.org/1999/xlink" x="0px" y="0px"
	 width="100px" height="53.948px" viewBox="0 23.219 100 53.948" enable-background="new 0 23.219 100 53.948" xml:space="preserve"
	>
<g>
	<path fill="#F26924" d="M17.188,47.031L8.562,59.469h6.812l-0.625,3.938H0l8.812-12.625H1.938l0.562-3.75
		C2.5,47.031,17.188,47.031,17.188,47.031z M33.688,54.594c0,1.312-0.25,2.5-0.688,3.625c-0.5,1.125-1.125,2.125-1.937,2.875
		c-0.812,0.812-1.813,1.438-2.938,1.875c-1.125,0.437-2.312,0.688-3.562,0.688c-1.5,0-2.875-0.312-4.125-1
		c-1.25-0.625-2.313-1.562-3.062-2.812c-0.75-1.188-1.125-2.625-1.125-4.188c0-1.188,0.25-2.312,0.75-3.438s1.125-2.062,2-2.938
		c0.875-0.812,1.875-1.5,3-1.938c1.188-0.5,2.375-0.688,3.688-0.688c1.375,0,2.688,0.312,3.875,0.875
		c1.188,0.562,2.188,1.438,2.938,2.625C33.313,51.469,33.688,52.906,33.688,54.594z M28.188,54.531c0-1-0.25-1.75-0.812-2.312
		c-0.5-0.562-1.188-0.875-2-0.875c-0.875,0-1.562,0.25-2.125,0.75c-0.562,0.5-0.938,1.125-1.188,1.812
		c-0.25,0.688-0.375,1.375-0.375,2c0,0.875,0.25,1.625,0.812,2.25c0.5,0.625,1.25,0.938,2.125,0.938c0.688,0,1.312-0.25,1.875-0.688
		c0.563-0.438,1-1,1.312-1.75C28.062,55.969,28.188,55.219,28.188,54.531z M52.625,54.594c0,1.312-0.25,2.5-0.688,3.625
		c-0.5,1.125-1.125,2.125-1.938,2.875c-0.812,0.812-1.812,1.438-2.938,1.875c-1.125,0.437-2.312,0.688-3.562,0.688
		c-1.5,0-2.875-0.312-4.125-1c-1.25-0.625-2.312-1.562-3.062-2.812c-0.75-1.188-1.125-2.625-1.125-4.188
		c0-1.188,0.25-2.312,0.75-3.438s1.125-2.062,2-2.938c0.875-0.812,1.875-1.5,3-1.938c1.188-0.5,2.375-0.688,3.688-0.688
		c1.375,0,2.688,0.312,3.875,0.875c1.188,0.562,2.188,1.438,2.937,2.625C52.25,51.469,52.625,52.906,52.625,54.594z M47.188,54.531
		c0-1-0.25-1.75-0.812-2.312c-0.5-0.562-1.188-0.812-2.063-0.812s-1.562,0.25-2.125,0.75c-0.563,0.5-0.938,1.125-1.188,1.813
		c-0.25,0.687-0.375,1.375-0.375,2c0,0.875,0.25,1.625,0.812,2.25c0.5,0.625,1.25,0.938,2.125,0.938c0.687,0,1.312-0.25,1.875-0.688
		c0.562-0.438,1-1,1.312-1.75C47,55.969,47.187,55.219,47.188,54.531z M84.812,54.219c0,0.75-0.063,1.562-0.25,2.375H74.25
		c0,2.25,1.125,3.375,3.312,3.375c1.125,0,2.063-0.125,2.938-0.375c0.875-0.25,1.938-0.625,3.125-1.125l-0.812,4
		c-1.125,0.438-2.062,0.75-2.75,0.938c-0.687,0.188-1.562,0.25-2.625,0.25c-2.25,0-4-0.438-5.25-1.25
		c-1.25-0.813-2.125-1.813-2.625-2.938c-0.438-1.125-0.688-2.25-0.688-3.438c0-1.688,0.375-3.25,1.125-4.688
		c0.75-1.438,1.812-2.562,3.188-3.375c1.375-0.812,2.875-1.25,4.562-1.25c1.25,0,2.438,0.25,3.5,0.812
		c1.062,0.562,1.875,1.375,2.5,2.5C84.5,51.219,84.813,52.594,84.812,54.219z M79.688,53.719v-0.188v-0.312
		c0-1.812-0.625-2.75-1.938-2.75c-0.75,0-1.375,0.312-1.812,0.938s-0.875,1.375-1.25,2.375h5V53.719z"/>
</g>
<g>
	<path fill="#F26924" d="M59.938,56.094l-1.188-7h-5.562l3.562,14.25L59.938,56.094z M66.688,42.969l-9.125,20.438h5.125
		l9.563-20.438H66.688z"/>
</g>
<path fill="#F26924" d="M98.438,51.219c-0.5-0.125-1.062-0.188-1.688-0.312s-1.375-0.188-2.125-0.188
	c-0.375,0-1.438,0.188-1.688,0.25l-2,12.438h-5.562l2.437-15.438c1.062-0.312,2.25-0.562,3.625-0.812
	c1.375-0.25,2.25-0.375,3.875-0.375c0.312,0,0.625,0,1.062,0.062c0.438,0,0.812,0.062,1.25,0.125
	c0.438,0.062,0.812,0.125,1.25,0.187c0.438,0.062,0.75,0.188,1.062,0.25C99.938,47.406,98.438,51.219,98.438,51.219z"/>
<path fill="#BA8748" d="M35.5,37.656l-1.75,1.25l0.688,2.062l-1.75-1.25l-1.75,1.25l0.688-2.062l-1.75-1.25H32l0.688-2.062
	l0.688,2.062H35.5z M40.062,29.969l-1.75,1.25L39,33.281l-1.75-1.25l-1.75,1.25l0.688-2.062l-1.75-1.25h2.125l0.688-2.062
	l0.688,2.062H40.062z M48.062,25.281l-1.75,1.25L47,28.594l-1.75-1.25l-1.75,1.25l0.688-2.062l-1.75-1.25h2.125l0.688-2.062
	l0.688,2.062H48.062z M57.312,25.281l-1.75,1.25l0.688,2.062l-1.75-1.25l-1.75,1.25l0.688-2.062l-1.75-1.25h2.125l0.688-2.062
	l0.687,2.062H57.312z M65.375,29.969l-1.75,1.25l0.688,2.062l-1.75-1.25l-1.75,1.25l0.688-2.062l-1.75-1.25h2.125l0.688-2.062
	l0.688,2.062H65.375z M70.062,37.656l-1.75,1.25L69,40.969l-1.75-1.25l-1.75,1.25l0.688-2.062l-1.75-1.25h2.125l0.688-2.062
	l0.687,2.062C67.937,37.656,70.062,37.656,70.062,37.656z"/>
<text transform="matrix(1 0 0 1 16.4249 74.4785)" fill="#58595B" font-family="'OpenSans-Semibold'" font-size="8.1062">Beste dierenpark</text>
<text transform="matrix(1 0 0 1 42.4062 42.9688)" font-family="'MyriadPro-Regular'" font-size="12">9.0</text>
</svg>
